<mxfile host="app.diagrams.net" agent="Mozilla/5.0 (Windows NT 10.0; Win64; x64) AppleWebKit/537.36 (KHTML, like Gecko) Chrome/137.0.0.0 Safari/537.36" version="27.1.1">
  <diagram id="QRk3QfDvVxxMxaS_catg" name="Страница — 1">
    <mxGraphModel dx="1367" dy="708" grid="1" gridSize="10" guides="1" tooltips="1" connect="1" arrows="1" fold="1" page="1" pageScale="1" pageWidth="827" pageHeight="1169" math="0" shadow="0">
      <root>
        <mxCell id="0" />
        <mxCell id="1" parent="0" />
        <mxCell id="IwbgG8wPGmpYqA6JXALW-1" value="Медицинский работник" style="html=1;dashed=0;whiteSpace=wrap;" vertex="1" parent="1">
          <mxGeometry x="40" y="130" width="100" height="50" as="geometry" />
        </mxCell>
        <object label="1.1" id="IwbgG8wPGmpYqA6JXALW-2">
          <mxCell style="swimlane;fontStyle=0;childLayout=stackLayout;horizontal=1;startSize=20;fillColor=#ffffff;horizontalStack=0;resizeParent=1;resizeParentMax=0;resizeLast=0;collapsible=0;marginBottom=0;swimlaneFillColor=#ffffff;" vertex="1" parent="1">
            <mxGeometry x="290" y="50" width="100" height="50" as="geometry" />
          </mxCell>
        </object>
        <mxCell id="IwbgG8wPGmpYqA6JXALW-3" value="БД с медицинскими данными" style="html=1;dashed=0;whiteSpace=wrap;shape=partialRectangle;right=0;" vertex="1" parent="1">
          <mxGeometry x="500" y="140" width="120" height="30" as="geometry" />
        </mxCell>
        <mxCell id="IwbgG8wPGmpYqA6JXALW-4" value="1.2" style="swimlane;fontStyle=0;childLayout=stackLayout;horizontal=1;startSize=20;fillColor=#ffffff;horizontalStack=0;resizeParent=1;resizeParentMax=0;resizeLast=0;collapsible=0;marginBottom=0;swimlaneFillColor=#ffffff;" vertex="1" parent="1">
          <mxGeometry x="290" y="190" width="100" height="50" as="geometry" />
        </mxCell>
        <mxCell id="IwbgG8wPGmpYqA6JXALW-5" value="" style="endArrow=classic;html=1;rounded=0;" edge="1" parent="1" source="IwbgG8wPGmpYqA6JXALW-1" target="IwbgG8wPGmpYqA6JXALW-2">
          <mxGeometry width="50" height="50" relative="1" as="geometry">
            <mxPoint x="400" y="300" as="sourcePoint" />
            <mxPoint x="280" y="110" as="targetPoint" />
            <Array as="points">
              <mxPoint x="90" y="75" />
            </Array>
          </mxGeometry>
        </mxCell>
        <mxCell id="IwbgG8wPGmpYqA6JXALW-6" value="Медицинские данные" style="edgeLabel;html=1;align=center;verticalAlign=middle;resizable=0;points=[];" vertex="1" connectable="0" parent="IwbgG8wPGmpYqA6JXALW-5">
          <mxGeometry x="0.067" y="-1" relative="1" as="geometry">
            <mxPoint x="-1" y="-16" as="offset" />
          </mxGeometry>
        </mxCell>
        <mxCell id="IwbgG8wPGmpYqA6JXALW-8" value="" style="endArrow=classic;html=1;rounded=0;" edge="1" parent="1" target="IwbgG8wPGmpYqA6JXALW-3">
          <mxGeometry width="50" height="50" relative="1" as="geometry">
            <mxPoint x="390" y="80" as="sourcePoint" />
            <mxPoint x="350" y="270" as="targetPoint" />
            <Array as="points">
              <mxPoint x="560" y="80" />
            </Array>
          </mxGeometry>
        </mxCell>
        <mxCell id="IwbgG8wPGmpYqA6JXALW-9" value="Медицинские данные" style="edgeLabel;html=1;align=center;verticalAlign=middle;resizable=0;points=[];" vertex="1" connectable="0" parent="IwbgG8wPGmpYqA6JXALW-8">
          <mxGeometry x="0.067" y="-1" relative="1" as="geometry">
            <mxPoint x="-12" y="-21" as="offset" />
          </mxGeometry>
        </mxCell>
        <mxCell id="IwbgG8wPGmpYqA6JXALW-10" value="" style="endArrow=classic;html=1;rounded=0;" edge="1" parent="1" source="IwbgG8wPGmpYqA6JXALW-3" target="IwbgG8wPGmpYqA6JXALW-4">
          <mxGeometry width="50" height="50" relative="1" as="geometry">
            <mxPoint x="470" y="240" as="sourcePoint" />
            <mxPoint x="360" y="220" as="targetPoint" />
            <Array as="points">
              <mxPoint x="340" y="155" />
            </Array>
          </mxGeometry>
        </mxCell>
        <mxCell id="IwbgG8wPGmpYqA6JXALW-11" value="Медицинские данные" style="edgeLabel;html=1;align=center;verticalAlign=middle;resizable=0;points=[];" vertex="1" connectable="0" parent="IwbgG8wPGmpYqA6JXALW-10">
          <mxGeometry x="0.067" y="-1" relative="1" as="geometry">
            <mxPoint x="24" y="-14" as="offset" />
          </mxGeometry>
        </mxCell>
        <mxCell id="IwbgG8wPGmpYqA6JXALW-12" value="" style="endArrow=classic;html=1;rounded=0;" edge="1" parent="1" source="IwbgG8wPGmpYqA6JXALW-4" target="IwbgG8wPGmpYqA6JXALW-1">
          <mxGeometry width="50" height="50" relative="1" as="geometry">
            <mxPoint x="280" y="240" as="sourcePoint" />
            <mxPoint x="530" y="322" as="targetPoint" />
            <Array as="points">
              <mxPoint x="90" y="215" />
            </Array>
          </mxGeometry>
        </mxCell>
        <mxCell id="IwbgG8wPGmpYqA6JXALW-13" value="Рекомендации ИИ" style="edgeLabel;html=1;align=center;verticalAlign=middle;resizable=0;points=[];" vertex="1" connectable="0" parent="IwbgG8wPGmpYqA6JXALW-12">
          <mxGeometry x="0.067" y="-1" relative="1" as="geometry">
            <mxPoint x="36" y="-14" as="offset" />
          </mxGeometry>
        </mxCell>
        <mxCell id="IwbgG8wPGmpYqA6JXALW-14" value="Сотрудник для работы с клиентами" style="html=1;dashed=0;whiteSpace=wrap;" vertex="1" parent="1">
          <mxGeometry x="40" y="330" width="100" height="50" as="geometry" />
        </mxCell>
        <object label="2" id="IwbgG8wPGmpYqA6JXALW-15">
          <mxCell style="swimlane;fontStyle=0;childLayout=stackLayout;horizontal=1;startSize=20;fillColor=#ffffff;horizontalStack=0;resizeParent=1;resizeParentMax=0;resizeLast=0;collapsible=0;marginBottom=0;swimlaneFillColor=#ffffff;" vertex="1" parent="1">
            <mxGeometry x="290" y="330" width="100" height="50" as="geometry" />
          </mxCell>
        </object>
        <mxCell id="IwbgG8wPGmpYqA6JXALW-16" value="" style="endArrow=classic;html=1;rounded=0;" edge="1" parent="1" source="IwbgG8wPGmpYqA6JXALW-14" target="IwbgG8wPGmpYqA6JXALW-15">
          <mxGeometry width="50" height="50" relative="1" as="geometry">
            <mxPoint x="210" y="402" as="sourcePoint" />
            <mxPoint x="360" y="360" as="targetPoint" />
          </mxGeometry>
        </mxCell>
        <mxCell id="IwbgG8wPGmpYqA6JXALW-17" value="Общие данные&lt;div&gt;клиентов&lt;/div&gt;" style="edgeLabel;html=1;align=center;verticalAlign=middle;resizable=0;points=[];" vertex="1" connectable="0" parent="IwbgG8wPGmpYqA6JXALW-16">
          <mxGeometry x="0.067" y="-1" relative="1" as="geometry">
            <mxPoint x="-10" y="-16" as="offset" />
          </mxGeometry>
        </mxCell>
        <mxCell id="IwbgG8wPGmpYqA6JXALW-18" value="" style="endArrow=classic;html=1;rounded=0;" edge="1" parent="1" source="IwbgG8wPGmpYqA6JXALW-15" target="IwbgG8wPGmpYqA6JXALW-3">
          <mxGeometry width="50" height="50" relative="1" as="geometry">
            <mxPoint x="350" y="370" as="sourcePoint" />
            <mxPoint x="680" y="350" as="targetPoint" />
            <Array as="points">
              <mxPoint x="340" y="280" />
              <mxPoint x="560" y="280" />
            </Array>
          </mxGeometry>
        </mxCell>
        <mxCell id="IwbgG8wPGmpYqA6JXALW-19" value="ID, ФИО клиентов" style="edgeLabel;html=1;align=center;verticalAlign=middle;resizable=0;points=[];" vertex="1" connectable="0" parent="IwbgG8wPGmpYqA6JXALW-18">
          <mxGeometry x="0.067" y="-1" relative="1" as="geometry">
            <mxPoint x="-102" y="-11" as="offset" />
          </mxGeometry>
        </mxCell>
        <mxCell id="IwbgG8wPGmpYqA6JXALW-20" value="БД клиентов" style="html=1;dashed=0;whiteSpace=wrap;shape=partialRectangle;right=0;" vertex="1" parent="1">
          <mxGeometry x="600" y="340" width="120" height="30" as="geometry" />
        </mxCell>
        <mxCell id="IwbgG8wPGmpYqA6JXALW-21" value="" style="endArrow=classic;html=1;rounded=0;" edge="1" parent="1" source="IwbgG8wPGmpYqA6JXALW-15" target="IwbgG8wPGmpYqA6JXALW-20">
          <mxGeometry width="50" height="50" relative="1" as="geometry">
            <mxPoint x="240" y="460" as="sourcePoint" />
            <mxPoint x="390" y="460" as="targetPoint" />
          </mxGeometry>
        </mxCell>
        <mxCell id="IwbgG8wPGmpYqA6JXALW-22" value="Общие данные&lt;div&gt;клиентов&lt;/div&gt;" style="edgeLabel;html=1;align=center;verticalAlign=middle;resizable=0;points=[];" vertex="1" connectable="0" parent="IwbgG8wPGmpYqA6JXALW-21">
          <mxGeometry x="0.067" y="-1" relative="1" as="geometry">
            <mxPoint x="-3" y="-16" as="offset" />
          </mxGeometry>
        </mxCell>
        <mxCell id="IwbgG8wPGmpYqA6JXALW-23" value="Сотрудник отдела кадров" style="html=1;dashed=0;whiteSpace=wrap;" vertex="1" parent="1">
          <mxGeometry x="40" y="480" width="100" height="50" as="geometry" />
        </mxCell>
        <object label="4" id="IwbgG8wPGmpYqA6JXALW-24">
          <mxCell style="swimlane;fontStyle=0;childLayout=stackLayout;horizontal=1;startSize=20;fillColor=#ffffff;horizontalStack=0;resizeParent=1;resizeParentMax=0;resizeLast=0;collapsible=0;marginBottom=0;swimlaneFillColor=#ffffff;" vertex="1" parent="1">
            <mxGeometry x="290" y="480" width="100" height="50" as="geometry" />
          </mxCell>
        </object>
        <mxCell id="IwbgG8wPGmpYqA6JXALW-25" value="" style="endArrow=classic;html=1;rounded=0;" edge="1" parent="1" source="IwbgG8wPGmpYqA6JXALW-23" target="IwbgG8wPGmpYqA6JXALW-24">
          <mxGeometry width="50" height="50" relative="1" as="geometry">
            <mxPoint x="220" y="510" as="sourcePoint" />
            <mxPoint x="370" y="510" as="targetPoint" />
          </mxGeometry>
        </mxCell>
        <mxCell id="IwbgG8wPGmpYqA6JXALW-26" value="Общие данные&lt;div&gt;сотрудников&lt;/div&gt;" style="edgeLabel;html=1;align=center;verticalAlign=middle;resizable=0;points=[];" vertex="1" connectable="0" parent="IwbgG8wPGmpYqA6JXALW-25">
          <mxGeometry x="0.067" y="-1" relative="1" as="geometry">
            <mxPoint y="-16" as="offset" />
          </mxGeometry>
        </mxCell>
        <mxCell id="IwbgG8wPGmpYqA6JXALW-27" value="БД сотрудников" style="html=1;dashed=0;whiteSpace=wrap;shape=partialRectangle;right=0;" vertex="1" parent="1">
          <mxGeometry x="490" y="490" width="120" height="30" as="geometry" />
        </mxCell>
        <mxCell id="IwbgG8wPGmpYqA6JXALW-28" value="" style="endArrow=classic;html=1;rounded=0;" edge="1" parent="1" source="IwbgG8wPGmpYqA6JXALW-24" target="IwbgG8wPGmpYqA6JXALW-27">
          <mxGeometry width="50" height="50" relative="1" as="geometry">
            <mxPoint x="220" y="620" as="sourcePoint" />
            <mxPoint x="370" y="620" as="targetPoint" />
          </mxGeometry>
        </mxCell>
        <mxCell id="IwbgG8wPGmpYqA6JXALW-29" value="Общие данные&lt;div&gt;сотрудников&lt;/div&gt;" style="edgeLabel;html=1;align=center;verticalAlign=middle;resizable=0;points=[];" vertex="1" connectable="0" parent="IwbgG8wPGmpYqA6JXALW-28">
          <mxGeometry x="0.067" y="-1" relative="1" as="geometry">
            <mxPoint x="-3" y="-16" as="offset" />
          </mxGeometry>
        </mxCell>
        <mxCell id="IwbgG8wPGmpYqA6JXALW-30" value="" style="endArrow=classic;html=1;rounded=0;" edge="1" parent="1" source="IwbgG8wPGmpYqA6JXALW-24" target="IwbgG8wPGmpYqA6JXALW-3">
          <mxGeometry width="50" height="50" relative="1" as="geometry">
            <mxPoint x="660" y="420" as="sourcePoint" />
            <mxPoint x="880" y="260" as="targetPoint" />
            <Array as="points">
              <mxPoint x="340" y="430" />
              <mxPoint x="440" y="430" />
              <mxPoint x="440" y="280" />
              <mxPoint x="560" y="280" />
            </Array>
          </mxGeometry>
        </mxCell>
        <mxCell id="IwbgG8wPGmpYqA6JXALW-31" value="ID, ФИО сотрудников" style="edgeLabel;html=1;align=center;verticalAlign=middle;resizable=0;points=[];" vertex="1" connectable="0" parent="IwbgG8wPGmpYqA6JXALW-30">
          <mxGeometry x="0.067" y="-1" relative="1" as="geometry">
            <mxPoint x="-331" y="13" as="offset" />
          </mxGeometry>
        </mxCell>
        <mxCell id="IwbgG8wPGmpYqA6JXALW-32" value="Сотрудник финансовых отделов" style="html=1;dashed=0;whiteSpace=wrap;" vertex="1" parent="1">
          <mxGeometry x="40" y="690" width="100" height="50" as="geometry" />
        </mxCell>
        <object label="4" id="IwbgG8wPGmpYqA6JXALW-33">
          <mxCell style="swimlane;fontStyle=0;childLayout=stackLayout;horizontal=1;startSize=20;fillColor=#ffffff;horizontalStack=0;resizeParent=1;resizeParentMax=0;resizeLast=0;collapsible=0;marginBottom=0;swimlaneFillColor=#ffffff;" vertex="1" parent="1">
            <mxGeometry x="290" y="690" width="100" height="50" as="geometry" />
          </mxCell>
        </object>
        <mxCell id="IwbgG8wPGmpYqA6JXALW-34" value="БД финансов" style="html=1;dashed=0;whiteSpace=wrap;shape=partialRectangle;right=0;" vertex="1" parent="1">
          <mxGeometry x="530" y="700" width="120" height="30" as="geometry" />
        </mxCell>
        <mxCell id="IwbgG8wPGmpYqA6JXALW-37" value="" style="endArrow=classic;html=1;rounded=0;" edge="1" parent="1" source="IwbgG8wPGmpYqA6JXALW-32" target="IwbgG8wPGmpYqA6JXALW-33">
          <mxGeometry width="50" height="50" relative="1" as="geometry">
            <mxPoint x="220" y="750" as="sourcePoint" />
            <mxPoint x="370" y="750" as="targetPoint" />
          </mxGeometry>
        </mxCell>
        <mxCell id="IwbgG8wPGmpYqA6JXALW-38" value="Финансовые данные" style="edgeLabel;html=1;align=center;verticalAlign=middle;resizable=0;points=[];" vertex="1" connectable="0" parent="IwbgG8wPGmpYqA6JXALW-37">
          <mxGeometry x="0.067" y="-1" relative="1" as="geometry">
            <mxPoint y="-16" as="offset" />
          </mxGeometry>
        </mxCell>
        <mxCell id="IwbgG8wPGmpYqA6JXALW-39" value="" style="endArrow=classic;html=1;rounded=0;" edge="1" parent="1" source="IwbgG8wPGmpYqA6JXALW-33" target="IwbgG8wPGmpYqA6JXALW-34">
          <mxGeometry width="50" height="50" relative="1" as="geometry">
            <mxPoint x="220" y="810" as="sourcePoint" />
            <mxPoint x="370" y="810" as="targetPoint" />
          </mxGeometry>
        </mxCell>
        <mxCell id="IwbgG8wPGmpYqA6JXALW-40" value="Финансовые данные" style="edgeLabel;html=1;align=center;verticalAlign=middle;resizable=0;points=[];" vertex="1" connectable="0" parent="IwbgG8wPGmpYqA6JXALW-39">
          <mxGeometry x="0.067" y="-1" relative="1" as="geometry">
            <mxPoint y="-16" as="offset" />
          </mxGeometry>
        </mxCell>
        <mxCell id="IwbgG8wPGmpYqA6JXALW-41" value="" style="endArrow=classic;html=1;rounded=0;" edge="1" parent="1" source="IwbgG8wPGmpYqA6JXALW-27" target="IwbgG8wPGmpYqA6JXALW-33">
          <mxGeometry width="50" height="50" relative="1" as="geometry">
            <mxPoint x="670" y="800" as="sourcePoint" />
            <mxPoint x="890" y="490" as="targetPoint" />
            <Array as="points">
              <mxPoint x="550" y="570" />
              <mxPoint x="340" y="570" />
            </Array>
          </mxGeometry>
        </mxCell>
        <mxCell id="IwbgG8wPGmpYqA6JXALW-42" value="ID, ФИО сотрудников" style="edgeLabel;html=1;align=center;verticalAlign=middle;resizable=0;points=[];" vertex="1" connectable="0" parent="IwbgG8wPGmpYqA6JXALW-41">
          <mxGeometry x="0.067" y="-1" relative="1" as="geometry">
            <mxPoint x="147" y="-9" as="offset" />
          </mxGeometry>
        </mxCell>
        <mxCell id="IwbgG8wPGmpYqA6JXALW-43" value="" style="endArrow=classic;html=1;rounded=0;" edge="1" parent="1" source="IwbgG8wPGmpYqA6JXALW-20" target="IwbgG8wPGmpYqA6JXALW-33">
          <mxGeometry width="50" height="50" relative="1" as="geometry">
            <mxPoint x="640" y="470" as="sourcePoint" />
            <mxPoint x="860" y="310" as="targetPoint" />
            <Array as="points">
              <mxPoint x="770" y="355" />
              <mxPoint x="770" y="620" />
              <mxPoint x="340" y="620" />
            </Array>
          </mxGeometry>
        </mxCell>
        <mxCell id="IwbgG8wPGmpYqA6JXALW-44" value="ID, ФИО клиентов, посещения" style="edgeLabel;html=1;align=center;verticalAlign=middle;resizable=0;points=[];" vertex="1" connectable="0" parent="IwbgG8wPGmpYqA6JXALW-43">
          <mxGeometry x="0.067" y="-1" relative="1" as="geometry">
            <mxPoint x="60" y="-179" as="offset" />
          </mxGeometry>
        </mxCell>
        <mxCell id="IwbgG8wPGmpYqA6JXALW-45" value="Сотрудник финтех компании" style="html=1;dashed=0;whiteSpace=wrap;" vertex="1" parent="1">
          <mxGeometry x="40" y="830" width="100" height="50" as="geometry" />
        </mxCell>
        <object label="5" id="IwbgG8wPGmpYqA6JXALW-46">
          <mxCell style="swimlane;fontStyle=0;childLayout=stackLayout;horizontal=1;startSize=20;fillColor=#ffffff;horizontalStack=0;resizeParent=1;resizeParentMax=0;resizeLast=0;collapsible=0;marginBottom=0;swimlaneFillColor=#ffffff;" vertex="1" parent="1">
            <mxGeometry x="290" y="830" width="100" height="50" as="geometry" />
          </mxCell>
        </object>
        <mxCell id="IwbgG8wPGmpYqA6JXALW-47" value="БД финтеха" style="html=1;dashed=0;whiteSpace=wrap;shape=partialRectangle;right=0;" vertex="1" parent="1">
          <mxGeometry x="530" y="840" width="120" height="30" as="geometry" />
        </mxCell>
        <mxCell id="IwbgG8wPGmpYqA6JXALW-48" value="" style="endArrow=classic;html=1;rounded=0;" edge="1" parent="1" source="IwbgG8wPGmpYqA6JXALW-20" target="IwbgG8wPGmpYqA6JXALW-50">
          <mxGeometry width="50" height="50" relative="1" as="geometry">
            <mxPoint x="1100" y="660" as="sourcePoint" />
            <mxPoint x="720" y="995" as="targetPoint" />
            <Array as="points">
              <mxPoint x="920" y="355" />
            </Array>
          </mxGeometry>
        </mxCell>
        <object label="6" id="IwbgG8wPGmpYqA6JXALW-50">
          <mxCell style="swimlane;fontStyle=0;childLayout=stackLayout;horizontal=1;startSize=20;fillColor=#ffffff;horizontalStack=0;resizeParent=1;resizeParentMax=0;resizeLast=0;collapsible=0;marginBottom=0;swimlaneFillColor=#ffffff;" vertex="1" parent="1">
            <mxGeometry x="870" y="650" width="100" height="50" as="geometry" />
          </mxCell>
        </object>
        <mxCell id="IwbgG8wPGmpYqA6JXALW-51" value="" style="endArrow=classic;html=1;rounded=0;" edge="1" parent="1" source="IwbgG8wPGmpYqA6JXALW-50" target="IwbgG8wPGmpYqA6JXALW-47">
          <mxGeometry width="50" height="50" relative="1" as="geometry">
            <mxPoint x="940" y="680" as="sourcePoint" />
            <mxPoint x="1240" y="755" as="targetPoint" />
            <Array as="points">
              <mxPoint x="920" y="855" />
            </Array>
          </mxGeometry>
        </mxCell>
        <mxCell id="IwbgG8wPGmpYqA6JXALW-52" value="Данные клиентов" style="edgeLabel;html=1;align=center;verticalAlign=middle;resizable=0;points=[];" vertex="1" connectable="0" parent="IwbgG8wPGmpYqA6JXALW-51">
          <mxGeometry x="0.067" y="-1" relative="1" as="geometry">
            <mxPoint x="82" y="-384" as="offset" />
          </mxGeometry>
        </mxCell>
        <mxCell id="IwbgG8wPGmpYqA6JXALW-53" value="Данные клиентов" style="edgeLabel;html=1;align=center;verticalAlign=middle;resizable=0;points=[];" vertex="1" connectable="0" parent="IwbgG8wPGmpYqA6JXALW-51">
          <mxGeometry x="0.0058" y="3" relative="1" as="geometry">
            <mxPoint x="-31" y="-18" as="offset" />
          </mxGeometry>
        </mxCell>
        <mxCell id="IwbgG8wPGmpYqA6JXALW-56" value="" style="endArrow=classic;html=1;rounded=0;" edge="1" parent="1" source="IwbgG8wPGmpYqA6JXALW-45" target="IwbgG8wPGmpYqA6JXALW-46">
          <mxGeometry width="50" height="50" relative="1" as="geometry">
            <mxPoint x="150" y="800" as="sourcePoint" />
            <mxPoint x="300" y="800" as="targetPoint" />
          </mxGeometry>
        </mxCell>
        <mxCell id="IwbgG8wPGmpYqA6JXALW-57" value="Кредитные данные&lt;div&gt;клиентов&lt;/div&gt;" style="edgeLabel;html=1;align=center;verticalAlign=middle;resizable=0;points=[];" vertex="1" connectable="0" parent="IwbgG8wPGmpYqA6JXALW-56">
          <mxGeometry x="0.067" y="-1" relative="1" as="geometry">
            <mxPoint x="-10" y="-16" as="offset" />
          </mxGeometry>
        </mxCell>
        <mxCell id="IwbgG8wPGmpYqA6JXALW-58" value="" style="endArrow=classic;html=1;rounded=0;" edge="1" parent="1" source="IwbgG8wPGmpYqA6JXALW-46" target="IwbgG8wPGmpYqA6JXALW-47">
          <mxGeometry width="50" height="50" relative="1" as="geometry">
            <mxPoint x="280" y="990" as="sourcePoint" />
            <mxPoint x="430" y="990" as="targetPoint" />
          </mxGeometry>
        </mxCell>
        <mxCell id="IwbgG8wPGmpYqA6JXALW-59" value="Кредитные данные&lt;div&gt;клиентов&lt;/div&gt;" style="edgeLabel;html=1;align=center;verticalAlign=middle;resizable=0;points=[];" vertex="1" connectable="0" parent="IwbgG8wPGmpYqA6JXALW-58">
          <mxGeometry x="0.067" y="-1" relative="1" as="geometry">
            <mxPoint x="-10" y="-16" as="offset" />
          </mxGeometry>
        </mxCell>
      </root>
    </mxGraphModel>
  </diagram>
</mxfile>
